<?xml version="1.0" encoding="utf-8"?>
<!-- Generator: Adobe Illustrator 18.0.0, SVG Export Plug-In . SVG Version: 6.00 Build 0)  -->
<!DOCTYPE svg PUBLIC "-//W3C//DTD SVG 1.1//EN" "http://www.w3.org/Graphics/SVG/1.1/DTD/svg11.dtd">
<svg version="1.1" id="Layer_1" xmlns="http://www.w3.org/2000/svg" xmlns:xlink="http://www.w3.org/1999/xlink" x="0px" y="0px"
	 viewBox="0 0 174.3 15.6" enable-background="new 0 0 174.3 15.6" xml:space="preserve">
<g>
	<path fill="#66B4AA" d="M107.1,11.6V2.3h2.7c0.8,0,1.4,0.2,1.9,0.6s0.7,0.9,0.7,1.5c0,0.5-0.1,1-0.4,1.4c-0.3,0.4-0.7,0.7-1.2,0.8
		v0c0.6,0.1,1.1,0.3,1.5,0.7c0.4,0.4,0.6,0.9,0.6,1.6c0,0.8-0.3,1.4-0.9,1.9c-0.6,0.5-1.3,0.7-2.2,0.7H107.1z M108.2,3.2v3h1.1
		c0.6,0,1.1-0.1,1.4-0.4c0.3-0.3,0.5-0.7,0.5-1.2c0-0.9-0.6-1.4-1.8-1.4H108.2z M108.2,7.2v3.4h1.5c0.6,0,1.1-0.2,1.5-0.5
		c0.4-0.3,0.5-0.7,0.5-1.2c0-1.1-0.7-1.6-2.2-1.6H108.2z"/>
	<path fill="#66B4AA" d="M119.4,11.6h-1.1v-1h0c-0.5,0.8-1.1,1.2-2,1.2c-0.7,0-1.2-0.2-1.6-0.5c-0.4-0.4-0.6-0.8-0.6-1.4
		c0-1.2,0.7-2,2.2-2.2l2-0.3c0-1.1-0.5-1.7-1.4-1.7c-0.8,0-1.5,0.3-2.2,0.8V5.4c0.7-0.4,1.4-0.6,2.3-0.6c1.6,0,2.3,0.8,2.3,2.5V11.6
		z M118.3,8.2l-1.6,0.2c-0.5,0.1-0.9,0.2-1.1,0.4c-0.3,0.2-0.4,0.5-0.4,0.9c0,0.3,0.1,0.6,0.3,0.8c0.2,0.2,0.5,0.3,0.9,0.3
		c0.5,0,1-0.2,1.3-0.6c0.3-0.4,0.5-0.8,0.5-1.4V8.2z"/>
	<path fill="#66B4AA" d="M124.5,11.5c-0.3,0.1-0.6,0.2-1,0.2c-1.2,0-1.7-0.6-1.7-1.9V5.8h-1.1V4.9h1.1V3.3l1.1-0.3v2h1.7v0.9h-1.7
		v3.7c0,0.4,0.1,0.8,0.2,1s0.4,0.3,0.8,0.3c0.3,0,0.5-0.1,0.7-0.2V11.5z"/>
	<path fill="#66B4AA" d="M130.2,11.3c-0.5,0.3-1.1,0.5-1.8,0.5c-0.9,0-1.7-0.3-2.3-0.9c-0.6-0.6-0.9-1.4-0.9-2.4
		c0-1.1,0.3-2,0.9-2.6c0.6-0.7,1.5-1,2.5-1c0.6,0,1.1,0.1,1.5,0.3v1.1c-0.5-0.3-1-0.5-1.6-0.5c-0.7,0-1.2,0.2-1.7,0.7
		c-0.4,0.5-0.7,1.1-0.7,1.9c0,0.8,0.2,1.4,0.6,1.8s1,0.7,1.6,0.7c0.6,0,1.1-0.2,1.6-0.6V11.3z"/>
	<path fill="#66B4AA" d="M137.4,11.6h-1.1V7.7c0-1.4-0.5-2.1-1.5-2.1c-0.5,0-1,0.2-1.3,0.6c-0.4,0.4-0.5,0.9-0.5,1.5v3.8h-1.1V1.7
		h1.1V6h0c0.5-0.8,1.2-1.3,2.2-1.3c1.5,0,2.2,0.9,2.2,2.7V11.6z"/>
	<path fill="#66B4AA" d="M150.4,11.6h-1.2l-1-2.6h-3.9l-0.9,2.6h-1.2l3.6-9.3h1.1L150.4,11.6z M147.8,8l-1.5-4
		c0-0.1-0.1-0.3-0.1-0.6h0c0,0.3-0.1,0.5-0.1,0.6l-1.4,4H147.8z"/>
	<path fill="#66B4AA" d="M152.7,10.6L152.7,10.6l0,4h-1.1V4.9h1.1v1.2h0c0.5-0.9,1.3-1.3,2.3-1.3c0.9,0,1.5,0.3,2,0.9
		s0.7,1.4,0.7,2.4c0,1.1-0.3,2-0.8,2.7s-1.3,1-2.2,1C153.8,11.7,153.2,11.4,152.7,10.6z M152.7,7.9v0.9c0,0.5,0.2,1,0.5,1.4
		c0.4,0.4,0.8,0.6,1.4,0.6c0.6,0,1.2-0.2,1.5-0.7c0.4-0.5,0.5-1.2,0.5-2.1c0-0.7-0.2-1.3-0.5-1.7c-0.3-0.4-0.8-0.6-1.4-0.6
		c-0.6,0-1.1,0.2-1.5,0.6C152.9,6.7,152.7,7.3,152.7,7.9z"/>
	<path fill="#66B4AA" d="M160.5,10.6L160.5,10.6l0,4h-1.1V4.9h1.1v1.2h0c0.5-0.9,1.3-1.3,2.3-1.3c0.9,0,1.5,0.3,2,0.9
		s0.7,1.4,0.7,2.4c0,1.1-0.3,2-0.8,2.7c-0.5,0.7-1.3,1-2.2,1C161.6,11.7,161,11.4,160.5,10.6z M160.5,7.9v0.9c0,0.5,0.2,1,0.5,1.4
		c0.4,0.4,0.8,0.6,1.4,0.6c0.6,0,1.2-0.2,1.5-0.7c0.4-0.5,0.5-1.2,0.5-2.1c0-0.7-0.2-1.3-0.5-1.7c-0.3-0.4-0.8-0.6-1.4-0.6
		c-0.6,0-1.1,0.2-1.5,0.6C160.7,6.7,160.5,7.3,160.5,7.9z"/>
	<path fill="#66B4AA" d="M166.8,11.3v-1.1c0.6,0.4,1.2,0.6,1.9,0.6c0.9,0,1.4-0.3,1.4-0.9c0-0.2,0-0.3-0.1-0.5s-0.2-0.2-0.3-0.3
		c-0.1-0.1-0.3-0.2-0.5-0.3c-0.2-0.1-0.4-0.2-0.6-0.2c-0.3-0.1-0.6-0.2-0.8-0.4s-0.4-0.3-0.6-0.4c-0.1-0.1-0.3-0.3-0.3-0.5
		c-0.1-0.2-0.1-0.4-0.1-0.7c0-0.3,0.1-0.6,0.2-0.8c0.1-0.2,0.3-0.4,0.6-0.6c0.2-0.2,0.5-0.3,0.8-0.4c0.3-0.1,0.6-0.1,0.9-0.1
		c0.6,0,1.1,0.1,1.5,0.3v1.1c-0.5-0.3-1.1-0.5-1.7-0.5c-0.2,0-0.4,0-0.5,0.1s-0.3,0.1-0.4,0.2c-0.1,0.1-0.2,0.2-0.3,0.3
		c-0.1,0.1-0.1,0.2-0.1,0.4c0,0.2,0,0.3,0.1,0.4c0.1,0.1,0.2,0.2,0.3,0.3s0.3,0.2,0.4,0.2c0.2,0.1,0.4,0.2,0.6,0.2
		c0.3,0.1,0.6,0.2,0.8,0.3s0.4,0.3,0.6,0.4c0.2,0.1,0.3,0.3,0.4,0.5s0.1,0.4,0.1,0.7c0,0.3-0.1,0.6-0.2,0.9
		c-0.1,0.2-0.3,0.4-0.6,0.6s-0.5,0.3-0.8,0.4c-0.3,0.1-0.6,0.1-1,0.1C167.9,11.7,167.3,11.6,166.8,11.3z"/>
</g>
<g>
	<path fill="#FFFFFF" d="M4.2,12.1c-0.4,0-0.8,0-1.1,0c0-3.3,0-6.7,0-10c0.1,0,0.1,0,0.2,0c0.4,0,0.8,0,1.2,0c0.1,0,0.2,0.1,0.2,0.2
		c0.7,1.6,1.4,3.1,2,4.7c0.4,1,0.9,2,1.3,3c0,0.1,0.1,0.1,0.1,0.2c0-0.1,0.1-0.1,0.1-0.2C8.9,8.6,9.5,7.3,10.1,6
		c0.6-1.3,1.1-2.5,1.7-3.8C11.8,2.1,11.9,2,12,2c0.4,0,0.7,0,1.1,0c0.1,0,0.1,0,0.2,0c0,3.3,0,6.7,0,10c-0.4,0-0.8,0-1.2,0
		c0-0.4,0-0.9,0-1.3c0-0.5,0-0.9,0-1.4s0-0.9,0-1.4c0-0.4,0-0.9,0-1.3c0-0.5,0-0.9,0-1.4c0-0.4,0-0.9,0-1.3c0,0,0,0,0,0
		c-0.3,0.7-0.6,1.3-0.9,2c-0.3,0.7-0.6,1.4-0.9,2C10,8.7,9.7,9.4,9.4,10c-0.3,0.7-0.6,1.4-0.9,2c-0.2,0-0.4,0-0.6,0
		C6.7,9.4,5.5,6.7,4.3,3.9c0,0,0,0,0,0C4.2,6.7,4.2,9.4,4.2,12.1z"/>
	<path fill="#FFFFFF" d="M48.5,5.9c0-0.3,0-0.6,0-1c0.4,0,0.8,0,1.2,0c0-0.1,0-0.2,0-0.2c0-0.4,0-0.8,0-1.3c0-0.6,0.3-1.2,0.8-1.6
		c0.4-0.3,0.8-0.5,1.2-0.5c0.3,0,0.6,0,0.9,0.1c0,0,0.1,0,0.1,0c0,0.3,0,0.7,0,1c-0.1,0-0.1,0-0.1,0c-0.3-0.1-0.6-0.2-0.9-0.1
		c-0.3,0.1-0.6,0.3-0.7,0.6c-0.1,0.2-0.1,0.4-0.2,0.6c0,0.4,0,0.9,0,1.3c0,0,0,0.1,0,0.1c0.9,0,1.8,0,2.8,0c0-0.2,0-0.4,0-0.6
		c0-0.2,0-0.4,0-0.6c0-0.2,0-0.4,0-0.6c0.4-0.1,0.8-0.2,1.1-0.4c0,0.7,0,1.4,0,2.1c0.6,0,1.2,0,1.8,0c0,0.2,0,0.3,0,0.5
		c0,0.2,0,0.3,0,0.5c-0.2,0-0.4,0-0.6,0c-0.2,0-0.4,0-0.6,0c-0.2,0-0.4,0-0.6,0c0,0.1,0,0.1,0,0.2c0,1.3,0,2.6,0,3.9
		c0,0.2,0,0.5,0.1,0.7c0.1,0.3,0.3,0.5,0.7,0.6c0.3,0.1,0.7,0,1-0.1c0,0,0,0,0.1,0c0,0,0,0,0,0c0,0.3,0,0.6,0,0.9
		c-0.2,0.1-0.4,0.2-0.7,0.2c-0.3,0-0.7,0-1,0c-0.5-0.1-0.9-0.5-1.1-1c-0.1-0.3-0.2-0.7-0.2-1.1c0-1.3,0-2.6,0-4c0-0.1,0-0.2,0-0.2
		c-0.9,0-1.9,0-2.8,0c0,2.1,0,4.1,0,6.2c-0.4,0-0.8,0-1.2,0c0-2.1,0-4.1,0-6.2C49.3,5.9,48.9,5.9,48.5,5.9z"/>
	<path fill="#FFFFFF" d="M60.9,12.1c-0.4,0-0.9,0-1.3,0c1.3-3.3,2.6-6.7,3.8-10c0.4,0,0.8,0,1.2,0c1.3,3.3,2.6,6.7,3.9,10
		c-0.1,0-0.9,0.1-1.3,0c-0.3-0.9-0.7-1.8-1.1-2.8c-1.4,0-2.8,0-4.3,0C61.6,10.2,61.3,11.1,60.9,12.1z M64.1,3.6
		C64.1,3.6,64,3.5,64.1,3.6c-0.6,1.5-1.2,3.1-1.7,4.6c0.3,0,3.3,0,3.4,0C65.2,6.6,64.6,5.1,64.1,3.6z"/>
	<path fill="#FFFFFF" d="M93.2,10.5c0,0.3,0,0.6,0,0.9c0,0.1,0,0.1-0.1,0.2c-0.3,0.2-0.7,0.4-1.1,0.5c-0.7,0.2-1.4,0.2-2.1,0.1
		c-1.1-0.2-1.8-0.9-2.2-1.9c-0.3-0.7-0.3-1.5-0.3-2.2c0-0.6,0.2-1.1,0.5-1.6c0.5-0.9,1.2-1.5,2.2-1.7c0.6-0.1,1.1-0.1,1.7,0.1
		c0.8,0.3,1.3,0.8,1.6,1.6c0.2,0.6,0.3,1.1,0.3,1.7c0,0.2,0,0.4,0,0.6c-1.7,0-3.4,0-5.1,0c0,0.3,0,0.6,0.1,0.9c0.3,1,1,1.5,2.1,1.6
		c0.8,0,1.5-0.2,2.2-0.7C93.1,10.6,93.1,10.6,93.2,10.5C93.1,10.5,93.2,10.5,93.2,10.5z M92.5,7.8C92.5,7.8,92.5,7.8,92.5,7.8
		c0-0.5-0.1-0.8-0.2-1.2c-0.2-0.4-0.5-0.7-0.9-0.8c-0.7-0.2-1.4-0.1-2,0.4c-0.4,0.4-0.7,0.9-0.8,1.5c0,0,0,0,0,0.1
		C90,7.8,91.2,7.8,92.5,7.8z"/>
	<path fill="#FFFFFF" d="M35.3,8.5c0,0.7-0.1,1.4-0.4,2c-0.5,1-1.4,1.6-2.5,1.8c-0.6,0.1-1.2,0.1-1.7-0.1c-1.1-0.3-1.8-1-2.2-2.1
		c-0.3-1.1-0.3-2.1,0.1-3.2c0.4-1.1,1.3-1.8,2.5-2c0.6-0.1,1.3-0.1,1.9,0.1c1.1,0.3,1.8,1,2.2,2.1C35.3,7.4,35.3,8,35.3,8.5z
		 M29.4,8.5c0,0.2,0,0.4,0,0.6c0,0.2,0.1,0.3,0.1,0.5c0.2,0.8,0.7,1.4,1.5,1.6c0.3,0.1,0.6,0.1,0.9,0.1c1-0.1,1.7-0.6,1.9-1.6
		c0.1-0.5,0.2-1,0.1-1.6c0-0.4-0.1-0.8-0.3-1.2c-0.3-0.6-0.7-1-1.4-1.1c-0.3-0.1-0.6-0.1-0.8-0.1c-1,0.1-1.6,0.6-2,1.5
		C29.5,7.6,29.4,8.1,29.4,8.5z"/>
	<path fill="#FFFFFF" d="M48.3,8.4c0,0.6-0.1,1.2-0.3,1.8c-0.5,1.1-1.4,1.8-2.6,2c-0.6,0.1-1.2,0.1-1.7-0.1c-1-0.3-1.8-1-2.1-2
		c-0.4-1.1-0.4-2.3,0.1-3.4C42,5.7,42.8,5,44,4.8c0.6-0.1,1.3-0.1,1.9,0c1.1,0.3,1.8,1,2.1,2.1C48.2,7.5,48.3,8,48.3,8.4z M42.4,8.5
		c0,0.4,0,0.7,0.1,1.1c0.2,0.8,0.7,1.3,1.5,1.6c0.3,0.1,0.6,0.1,0.9,0.1c1-0.1,1.7-0.6,2-1.6C47,9.4,47,9.1,47.1,8.9
		c0.1-0.6,0-1.2-0.2-1.8c-0.3-0.6-0.7-1.1-1.4-1.2c-0.3-0.1-0.6-0.1-0.8-0.1c-1,0.1-1.7,0.6-2,1.5C42.4,7.6,42.4,8.1,42.4,8.5z"/>
	<path fill="#FFFFFF" d="M80.6,4.9c0.4,0,0.8,0,1.1,0c0,2.4,0,4.8,0,7.1c-0.4,0-0.7,0-1.1,0c0-0.4,0-0.7,0-1.1c0,0,0,0,0,0
		c0,0.1-0.1,0.1-0.1,0.2c-0.3,0.5-0.8,0.9-1.4,1c-0.6,0.1-1.2,0.1-1.7-0.1c-0.5-0.2-0.9-0.6-1.2-1.1c-0.2-0.4-0.3-0.8-0.3-1.2
		c0-0.3,0-0.5,0-0.8c0-1.3,0-2.6,0-3.9c0-0.1,0-0.1,0-0.2c0.4,0,0.8,0,1.2,0c0,0.1,0,0.2,0,0.2c0,1.2,0,2.5,0,3.7
		c0,0.4,0,0.8,0.1,1.2c0,0,0,0.1,0,0.1c0.2,0.7,0.7,1.1,1.5,1.1c1,0,1.8-0.6,2-1.6c0-0.2,0.1-0.5,0.1-0.7c0-1.3,0-2.5,0-3.8
		C80.6,5.1,80.6,5,80.6,4.9z"/>
	<path fill="#FFFFFF" d="M74.9,11.1c0,0.3,0,0.6,0,1c-2,0-3.9,0-5.9,0c0-0.2,0-0.4,0.1-0.5c1.3-1.8,2.6-3.6,4-5.4
		c0-0.1,0.1-0.1,0.1-0.2c-1.3,0-2.5,0-3.8,0c0-0.3,0-0.6,0-1c0.1,0,5.3,0,5.5,0c0,0.2,0,0.3-0.1,0.5c-1.3,1.8-2.7,3.7-4,5.5
		c0,0.1-0.1,0.1-0.1,0.2c0.3,0,0.6,0,0.9,0c0.3,0,0.5,0,0.8,0c0.3,0,0.6,0,0.8,0c0.3,0,0.5,0,0.8,0C74.4,11.1,74.6,11.1,74.9,11.1z"
		/>
	<path fill="#FFFFFF" d="M36.1,11.8c0-0.4,0-0.8,0-1.2c0.1,0,0.1,0.1,0.2,0.1c0.6,0.4,1.2,0.6,1.8,0.6c0.2,0,0.4,0,0.5-0.1
		c0.4-0.1,0.6-0.3,0.7-0.7c0.1-0.4-0.1-0.7-0.4-0.9c-0.4-0.3-0.8-0.4-1.1-0.6c-0.3-0.1-0.6-0.3-0.8-0.4c-1.1-0.7-1.1-2.3-0.2-3.1
		c0.5-0.4,1-0.6,1.5-0.6c0.6,0,1.1,0,1.7,0.2c0.1,0,0.1,0.1,0.2,0.1c0,0.4,0,0.7,0,1.1c-0.1,0-0.1-0.1-0.2-0.1
		c-0.5-0.3-1.1-0.4-1.7-0.4c-0.1,0-0.2,0-0.4,0.1c-0.7,0.3-0.7,0.9-0.5,1.4c0.1,0.2,0.2,0.3,0.3,0.4C38,7.7,38.3,7.9,38.6,8
		c0.3,0.1,0.6,0.3,0.8,0.4c0.1,0.1,0.2,0.1,0.3,0.2c0.7,0.5,1,1.4,0.7,2.3c-0.2,0.4-0.4,0.7-0.8,0.9c-0.4,0.2-0.8,0.3-1.2,0.4
		c-0.6,0.1-1.2,0-1.8-0.2C36.5,12,36.3,11.9,36.1,11.8z"/>
	<path fill="#FFFFFF" d="M23.2,6.3C23,6.2,22.8,6.1,22.7,6c-0.6-0.3-1.3-0.3-1.9-0.2C20,6,19.5,6.6,19.2,7.3c-0.3,0.8-0.3,1.6,0,2.4
		c0.3,0.9,1.1,1.5,2.1,1.5c0.6,0,1.2-0.1,1.7-0.5c0.1,0,0.1-0.1,0.2-0.1c0,0.4,0,0.7,0,1.1c-0.2,0.2-0.5,0.3-0.8,0.3
		c-0.8,0.2-1.5,0.2-2.3,0C19,11.7,18.3,11,18,9.9c-0.3-1-0.3-2.1,0.2-3.1c0.5-1.2,1.5-1.9,2.8-2.1c0.6-0.1,1.3,0,1.9,0.2
		c0.3,0.1,0.3,0.1,0.3,0.5c0,0.2,0,0.4,0,0.6C23.2,6.1,23.2,6.2,23.2,6.3z"/>
	<path fill="#FFFFFF" d="M25.6,12.1c-0.4,0-0.8,0-1.1,0c0,0,0,0,0,0c0,0,0,0,0,0c0,0,0-0.1,0-0.1c0-2.3,0-4.6,0-7c0,0,0,0,0-0.1
		c0.4,0,0.7,0,1.1,0c0,0.2,0,0.5,0,0.7c0,0.2,0,0.4,0,0.7c0,0,0,0,0,0c0-0.1,0.1-0.1,0.1-0.2c0.1-0.3,0.3-0.6,0.6-0.8
		c0.4-0.4,0.8-0.5,1.4-0.5c0.2,0,0.4,0,0.5,0.1c0,0.4,0,0.8,0,1.2c0,0-0.1,0-0.1,0c-0.6-0.3-1.5-0.3-2,0.5C25.8,7,25.7,7.4,25.6,8
		c0,0.2,0,0.4,0,0.6c0,1.1,0,2.2,0,3.3C25.6,11.9,25.6,12,25.6,12.1z"/>
	<path fill="#FFFFFF" d="M84.8,12.1c-0.4,0-0.8,0-1.1,0c0-0.1,0-6.9,0-7.1c0.4,0,0.7,0,1.1,0c0,0.5,0,0.9,0,1.4c0,0,0,0,0,0
		c0-0.1,0.1-0.1,0.1-0.2c0.1-0.4,0.4-0.7,0.7-0.9c0.4-0.3,0.8-0.4,1.3-0.4c0.2,0,0.4,0,0.6,0.1c0,0.4,0,0.8,0,1.2c0,0-0.1,0-0.1-0.1
		c-0.6-0.3-1.4-0.3-1.9,0.4c-0.3,0.4-0.5,0.9-0.5,1.3c0,0.2,0,0.5,0,0.7c0,1.1,0,2.2,0,3.4C84.8,11.9,84.8,12,84.8,12.1z"/>
	<path fill="#FFFFFF" d="M16.5,12.1c-0.4,0-0.8,0-1.1,0c0-2.4,0-4.8,0-7.2c0.4,0,0.7,0,1.1,0C16.5,7.3,16.5,9.7,16.5,12.1z"/>
	<path fill="#FFFFFF" d="M15.2,2.4c0-0.4,0.3-0.7,0.7-0.7c0.4,0,0.8,0.3,0.8,0.7c0,0.4-0.3,0.7-0.8,0.7C15.5,3.1,15.2,2.8,15.2,2.4z
		"/>
</g>
</svg>
